<?xml version="1.0" standalone="no"?>
<!DOCTYPE svg PUBLIC "-//W3C//DTD SVG 20010904//EN"
 "http://www.w3.org/TR/2001/REC-SVG-20010904/DTD/svg10.dtd">
<svg version="1.0" xmlns="http://www.w3.org/2000/svg"
 width="337.000000pt" height="458.000000pt" viewBox="0 0 337.000000 458.000000"
 preserveAspectRatio="xMidYMid meet">

<g transform="translate(0.000000,458.000000) scale(0.100000,-0.100000)"
fill="#000000" stroke="none">
<path d="M2236 4513 c2 -47 8 -74 23 -93 l20 -28 -45 -47 c-25 -26 -54 -67
-64 -91 -11 -24 -26 -44 -34 -44 -27 0 -68 20 -85 41 -14 17 -24 20 -49 15
-18 -5 -34 -15 -37 -27 -5 -15 -12 -18 -28 -13 -33 11 -193 7 -215 -5 -12 -6
-29 -11 -39 -11 -28 0 -203 -92 -229 -120 -78 -85 -114 -154 -121 -239 l-6
-61 -68 0 c-56 0 -81 -6 -151 -37 -45 -20 -94 -46 -107 -57 -32 -28 -57 -89
-66 -156 -4 -32 -22 -86 -43 -127 -30 -59 -40 -72 -55 -67 -12 4 -27 -3 -43
-20 -40 -39 -63 -37 -110 9 -107 104 -134 126 -164 132 -20 3 -35 13 -37 25
-3 10 -9 18 -13 18 -5 0 -12 12 -18 28 -13 36 -99 150 -124 163 -20 11 -107
39 -121 39 -18 0 18 -44 64 -77 71 -51 101 -115 59 -126 -13 -3 -20 0 -20 9 0
8 -31 45 -69 82 -85 83 -138 103 -199 74 l-37 -17 -3 -733 -2 -733 50 50 c28
28 54 51 58 51 4 0 27 19 52 42 25 23 48 41 53 40 4 -1 7 6 7 17 0 28 28 47
50 34 19 -13 40 0 40 24 0 7 5 13 10 13 6 0 15 10 21 23 24 54 58 97 77 97 14
0 48 -42 63 -78 10 -22 31 -42 67 -63 l54 -30 41 34 c46 37 102 70 79 46 -6
-7 -12 -24 -12 -37 0 -24 -21 -52 -39 -52 -5 0 -12 -9 -16 -19 -7 -23 -55 -24
-55 -1 -1 30 -91 -127 -131 -228 -54 -136 -66 -211 -79 -493 -5 -129 -13 -250
-17 -269 -3 -19 -5 -44 -4 -55 1 -11 -7 -2 -18 20 -11 22 -20 48 -21 59 0 13
-5 17 -20 13 -12 -3 -20 0 -20 7 0 6 -11 33 -25 59 -22 41 -24 52 -15 85 5 20
10 53 10 73 0 19 9 69 20 110 19 71 42 210 42 256 0 13 5 20 13 17 7 -3 20 10
29 31 19 40 15 60 -5 24 -11 -22 -13 -22 -19 -5 -10 31 -36 -5 -44 -61 -26
-192 -35 -222 -51 -170 -6 22 -7 21 -17 -5 -6 -18 -17 -28 -31 -29 -17 -1 -18
-2 -5 -6 19 -5 21 -12 19 -53 -4 -52 -22 -85 -59 -109 -20 -13 -53 -35 -73
-48 -19 -13 -40 -23 -46 -23 -16 0 -13 48 4 54 11 4 13 1 8 -14 -10 -30 7 -24
44 16 19 20 46 40 60 46 16 6 21 12 13 15 -9 3 -5 12 13 29 28 26 30 58 5 60
-24 2 -50 15 -50 26 0 6 9 8 20 5 11 -3 20 -2 20 3 0 17 -29 30 -73 31 -26 1
-47 6 -47 10 0 4 -9 5 -20 2 -33 -9 -24 18 35 102 55 79 59 95 25 95 -10 0
-32 11 -48 25 -17 14 -33 25 -36 25 -11 0 -5 -593 6 -615 8 -13 8 -20 -1 -23
-6 -2 -11 -28 -11 -64 0 -48 3 -58 13 -50 8 7 18 7 27 2 12 -8 12 -10 -3 -16
-9 -3 -17 -12 -17 -20 0 -8 -4 -14 -10 -14 -14 0 -13 -163 1 -177 8 -8 8 -13
0 -17 -15 -10 -14 -59 1 -54 7 3 19 17 28 33 9 16 28 32 43 36 16 4 25 3 21
-2 -3 -5 -11 -9 -18 -9 -7 0 -18 -16 -26 -35 -7 -19 -19 -36 -27 -39 -7 -3
-13 -12 -13 -21 0 -8 -4 -15 -10 -15 -5 0 -10 -9 -10 -20 0 -13 7 -20 19 -20
10 0 24 -7 31 -15 10 -12 9 -16 -4 -21 -9 -3 -16 -12 -16 -20 0 -8 -7 -14 -15
-14 -18 0 -21 -70 -5 -100 6 -10 6 -21 2 -24 -8 -5 -16 -196 -9 -196 2 0 18 5
36 11 25 9 31 17 31 39 0 24 10 35 61 69 42 28 72 41 95 41 22 0 34 5 34 13 0
17 36 50 77 71 17 9 34 24 36 33 3 12 5 9 6 -9 1 -22 -6 -29 -44 -43 -52 -20
-51 -30 5 -39 40 -6 40 -6 40 -51 l0 -46 -51 7 c-50 7 -51 6 -40 -15 7 -12 27
-31 46 -44 39 -25 47 -57 15 -57 -11 0 -23 -7 -26 -15 -8 -21 -21 -19 -29 5
-7 22 -22 25 -44 11 -12 -8 -8 -17 20 -49 19 -22 43 -42 54 -45 15 -5 17 -9 8
-18 -9 -9 -20 -9 -45 1 -109 40 -236 52 -258 25 -7 -8 -16 -12 -21 -9 -5 3 -9
-1 -9 -8 0 -7 16 -26 35 -41 19 -15 35 -34 35 -42 0 -9 9 -15 21 -15 34 0 92
-40 79 -54 -5 -7 -7 -16 -3 -20 4 -4 8 -13 8 -19 0 -14 19 -16 21 -2 1 6 3 15
4 20 1 6 1 18 0 28 -1 13 4 18 17 15 10 -2 18 -10 18 -18 0 -8 4 -21 8 -27 5
-8 4 -13 -2 -13 -6 0 -11 -11 -11 -25 0 -21 -4 -24 -28 -21 -23 2 -33 -3 -48
-25 -10 -16 -22 -29 -26 -29 -5 0 -8 -7 -8 -16 0 -10 6 -14 18 -10 85 26 114
27 163 5 27 -13 49 -26 49 -31 0 -14 -49 -21 -156 -22 -73 -1 -104 -5 -104
-13 0 -6 20 -15 45 -19 28 -4 45 -11 45 -20 0 -18 0 -18 53 5 52 22 134 29
161 14 18 -10 16 -13 -21 -31 -22 -12 -43 -28 -46 -37 -10 -24 -217 -22 -244
3 -10 9 -14 14 -8 10 25 -16 22 5 -3 29 -18 16 -21 23 -10 19 28 -9 21 19 -7
32 -43 20 -55 7 -55 -59 l0 -59 1388 1 c763 1 1374 4 1357 8 -19 4 -26 9 -18
14 6 4 17 32 23 61 6 30 20 62 30 71 11 10 24 32 30 51 10 30 15 33 64 39 69
9 159 -16 181 -49 14 -20 44 -140 45 -173 0 -8 -24 -13 -72 -16 -40 -1 21 -4
135 -5 193 -2 208 -1 205 15 -2 13 -17 20 -48 24 -25 4 -61 14 -80 22 -32 14
-33 15 -10 16 14 0 43 -6 65 -14 73 -27 75 -25 75 66 0 90 -11 95 -45 19 -10
-21 -22 -38 -27 -37 -6 1 -34 27 -64 58 -43 44 -61 75 -94 156 -22 55 -40 106
-40 112 0 16 -30 61 -41 61 -5 0 -9 -9 -9 -19 0 -25 -12 -32 -30 -21 -12 7
-10 13 9 29 13 11 34 44 47 72 27 57 24 56 125 29 36 -10 99 -61 99 -80 0 -5
16 -26 35 -47 l35 -38 0 58 c0 35 -4 57 -11 57 -7 0 -9 11 -5 30 5 27 3 30
-18 30 -13 0 -29 7 -37 16 -7 8 -29 24 -48 34 -43 21 -74 54 -76 78 0 9 -4 23
-9 30 -5 8 1 12 19 12 14 0 39 7 55 15 16 8 31 11 34 6 4 -5 15 -7 26 -4 16 4
20 14 20 49 0 25 -7 61 -16 82 -9 20 -24 62 -34 92 -13 41 -23 56 -39 58 -17
3 -21 10 -21 43 0 40 8 46 39 29 10 -5 37 -14 61 -19 l42 -9 -4 28 c-3 20 -1
27 9 23 8 -3 13 3 13 16 0 14 -6 21 -20 21 -13 0 -20 7 -20 19 0 11 9 23 20
26 30 9 27 55 -3 55 -13 0 -28 5 -35 12 -8 8 -15 8 -26 -1 -8 -7 -32 -11 -53
-9 -33 3 -38 7 -41 30 l-3 27 73 0 c109 1 108 1 108 33 0 25 -3 28 -33 28 -18
0 -42 7 -53 15 -22 17 -38 20 -29 5 4 -6 -10 -10 -34 -10 -39 0 -41 2 -41 30
0 33 14 39 29 13 9 -17 10 -17 16 -1 8 20 -14 47 -32 41 -16 -6 -29 23 -38 82
-4 28 -29 121 -56 207 -27 86 -49 172 -49 191 0 51 -34 173 -69 250 -18 37
-31 73 -29 80 3 12 -92 136 -131 171 -17 15 -26 17 -44 9 -29 -14 -45 -5 -43
24 0 12 -2 21 -6 20 -4 -1 -19 13 -34 30 -15 18 -31 30 -35 27 -5 -3 -16 2
-25 10 -8 9 -11 16 -6 16 17 0 42 134 42 225 0 50 9 159 20 244 20 157 92 594
111 679 9 40 99 474 99 478 0 1 13 7 29 13 l28 12 -12 52 c-7 29 -16 60 -20
70 -5 11 -2 17 6 18 29 3 45 -4 70 -28 22 -20 31 -23 47 -14 21 11 226 20 236
10 4 -3 1 -19 -6 -35 -17 -41 -17 -93 -1 -314 9 -124 11 -224 6 -274 l-8 -80
-35 -8 c-75 -18 -117 -33 -170 -64 -30 -18 -73 -37 -94 -42 -21 -6 -53 -26
-71 -44 -18 -18 -38 -37 -44 -43 -63 -56 -78 -84 -85 -157 -5 -60 -2 -90 19
-173 14 -55 29 -103 34 -108 4 -4 21 0 38 9 29 17 33 17 77 0 25 -10 46 -22
46 -27 0 -12 -5 -12 -47 6 -63 27 -103 15 -103 -30 0 -22 22 -48 51 -58 12 -4
16 -1 12 12 -2 10 3 23 11 30 9 8 16 10 17 5 1 -5 2 -20 2 -34 2 -18 8 -25 27
-26 45 -4 80 -23 80 -43 0 -39 -45 -51 -104 -26 -16 7 -18 5 -13 -11 39 -121
52 -154 59 -154 4 0 8 20 8 45 l0 45 50 -52 c45 -48 50 -57 51 -103 0 -27 3
-69 5 -93 2 -27 0 -41 -6 -37 -14 9 -12 -4 3 -19 16 -16 164 -180 204 -226 31
-34 31 -35 52 -16 20 19 21 27 21 345 l0 326 -31 18 c-17 9 -40 17 -52 17 -11
0 -29 8 -39 17 -18 16 -21 16 -46 1 -17 -11 -28 -27 -30 -45 -4 -44 -11 -66
-27 -87 -36 -47 -64 56 -29 108 9 15 11 26 5 30 -6 4 -8 13 -5 20 3 8 -6 32
-20 53 -29 43 -43 160 -18 156 14 -3 16 33 2 42 -6 4 -3 16 10 32 11 14 20 32
20 40 0 15 -29 64 -43 74 -18 13 -1 45 33 62 114 57 230 107 249 107 l21 0 0
510 0 510 -452 -1 c-249 -1 -443 -4 -432 -6 35 -7 38 -44 7 -70 -14 -13 -32
-23 -40 -23 -7 0 -16 -7 -19 -15 -11 -28 -47 -10 -61 30 -21 60 -49 85 -98 85
l-42 0 3 -67z m-278 -452 c110 -10 130 -18 205 -90 48 -46 61 -76 71 -156 4
-38 3 -40 -24 -41 -16 -1 -29 2 -28 5 3 25 -6 31 -47 31 -53 0 -135 -25 -152
-47 -14 -18 -61 -10 -78 14 -25 33 -146 35 -220 3 -55 -23 -95 -56 -95 -77 0
-7 -5 -22 -12 -32 -19 -31 -3 -51 42 -51 24 0 39 -4 35 -10 -3 -5 11 -17 32
-25 76 -33 197 9 226 77 30 67 66 69 81 4 22 -91 130 -134 218 -86 l36 19 5
-22 c3 -12 9 -48 12 -79 6 -50 5 -58 -9 -58 -9 0 -16 -4 -16 -10 0 -14 -61 15
-102 49 -42 35 -45 36 -50 16 -2 -10 -7 -12 -18 -5 -13 9 -13 11 0 19 8 6 11
13 7 18 -5 4 -12 2 -16 -5 -4 -8 -25 -13 -47 -12 -21 0 -46 1 -54 1 -8 0 -37
-7 -63 -17 -55 -19 -82 -9 -56 22 12 15 12 16 -2 8 -9 -5 -35 -25 -58 -44 -23
-19 -64 -43 -92 -52 -46 -16 -53 -16 -74 -2 -32 21 -58 6 -86 -51 -21 -41 -49
-65 -35 -30 3 9 0 15 -9 15 -8 0 -15 5 -15 10 0 6 -14 24 -30 42 -28 29 -30
36 -24 77 3 25 10 50 14 54 9 10 26 -33 40 -105 6 -32 15 -58 20 -58 14 0 16
81 2 101 -18 26 -26 132 -14 202 5 31 5 57 0 57 -15 0 -8 23 16 55 24 31 24
32 9 87 -9 31 -13 62 -11 70 6 15 68 47 138 72 25 8 59 20 75 27 17 6 50 12
74 13 26 1 46 7 49 14 3 9 8 10 17 2 7 -6 58 -15 113 -19z m-828 -451 c36 -36
17 -53 -72 -66 l-48 -6 0 31 c0 26 6 34 33 46 44 19 64 18 87 -5z m244 -1 c13
-6 27 -20 29 -30 6 -22 -6 -25 -22 -5 -7 8 -23 17 -36 20 -27 7 -34 26 -10 26
8 0 25 -5 39 -11z m-4 -100 c0 -4 -8 -6 -17 -5 -13 1 -19 -8 -21 -28 -5 -39
29 -73 69 -71 16 1 32 -2 35 -6 9 -15 -7 -55 -26 -67 -35 -22 -101 27 -99 75
0 15 2 14 9 -4 5 -13 16 -23 25 -23 20 0 19 10 -5 40 -20 25 -24 57 -14 97 5
19 9 20 25 10 10 -6 19 -15 19 -18z m-1180 -24 c-7 -8 -22 -15 -34 -15 -20 1
-20 2 4 15 33 19 46 19 30 0z m220 -10 c-7 -9 -15 -13 -17 -11 -7 7 7 26 19
26 6 0 6 -6 -2 -15z m-271 -18 c-2 -1 -13 -9 -24 -17 -19 -14 -19 -14 -6 3 7
9 18 17 24 17 6 0 8 -1 6 -3z m1727 -53 c19 -15 34 -30 34 -35 0 -10 -70 -12
-92 -4 -19 8 -11 65 9 65 8 0 30 -12 49 -26z m-1781 6 c-3 -5 -12 -10 -18 -10
-7 0 -6 4 3 10 19 12 23 12 15 0z m2015 -15 c0 -8 -4 -15 -10 -15 -5 0 -7 7
-4 15 4 8 8 15 10 15 2 0 4 -7 4 -15z m-997 -29 c7 -17 -23 -46 -47 -46 -22 0
-31 26 -16 45 16 19 56 19 63 1z m954 -69 c3 -4 3 -10 0 -14 -10 -9 -147 -8
-182 1 l-30 9 25 7 c31 8 178 6 187 -3z m-98 -54 c107 -7 103 -23 -6 -23 -64
0 -72 -2 -66 -17 5 -13 3 -15 -13 -8 -10 4 -32 10 -49 13 -32 5 -55 19 -55 33
0 11 63 11 189 2z m96 -123 c10 -11 22 -17 26 -14 5 3 9 -1 9 -9 0 -19 -33
-24 -147 -23 -73 1 -96 5 -110 18 -9 10 -14 20 -10 24 12 12 73 22 143 23 59
1 74 -2 89 -19z m984 -129 c19 -27 29 -71 16 -71 -4 0 -19 7 -35 15 -23 12
-30 23 -30 44 0 49 19 54 49 12z m-1602 -157 c1 -29 -4 -52 -13 -61 -8 -8 -14
-24 -14 -36 0 -18 2 -19 10 -7 8 13 10 13 10 -2 0 -9 3 -25 6 -35 5 -15 4 -15
-5 -3 -9 12 -11 11 -12 -10 0 -23 -2 -22 -15 10 -12 30 -13 31 -9 6 17 -84 16
-92 -3 -45 -11 26 -27 57 -36 70 -32 47 -14 102 48 140 17 10 31 19 31 19 0 0
1 -21 2 -46z m-157 -38 c0 -2 -7 -7 -16 -10 -8 -3 -12 -2 -9 4 6 10 25 14 25
6z m1326 -164 c-4 -3 -14 2 -24 12 -16 18 -16 18 6 6 13 -6 21 -14 18 -18z
m-2308 -90 c7 -5 10 -16 6 -27 -7 -17 -8 -17 -21 1 -22 30 -14 44 15 26z
m1762 -625 c0 -7 -9 -31 -21 -52 -15 -30 -19 -50 -14 -82 6 -43 6 -43 -24 -43
-30 0 -31 0 -25 43 4 28 1 55 -10 81 -26 61 -23 66 39 66 38 0 55 -4 55 -13z
m-254 -46 c1 -18 13 -55 28 -82 14 -28 26 -52 26 -54 0 -8 -112 -45 -121 -40
-5 4 -9 19 -9 35 0 35 -28 110 -41 110 -5 0 -9 6 -9 14 0 14 95 58 115 52 5
-1 10 -17 11 -35z m352 17 c16 -16 15 -28 -3 -28 -14 0 -35 -56 -35 -92 0 -30
30 -20 36 12 4 16 10 27 15 24 13 -7 11 -81 -1 -89 -17 -11 -88 5 -94 21 -5
12 27 134 41 157 6 11 27 9 41 -5z m-518 -83 c15 -17 4 -37 -18 -33 -27 4 -45
-11 -32 -27 9 -11 16 -11 41 3 29 17 30 16 49 -8 36 -45 37 -71 4 -97 -16 -12
-37 -23 -46 -23 -25 0 -23 -37 2 -50 15 -8 20 -8 20 3 0 7 9 23 20 35 16 16
28 21 48 16 15 -3 50 -10 77 -16 28 -6 64 -17 80 -26 17 -9 31 -15 33 -14 10
8 52 -1 52 -11 0 -13 61 -48 106 -61 33 -10 126 -117 121 -138 -3 -10 -2 -18
3 -18 4 0 10 -32 12 -72 5 -64 3 -74 -15 -88 -26 -21 -17 -70 13 -70 18 0 20
-7 21 -62 0 -35 2 -70 3 -78 2 -8 6 -44 10 -80 5 -48 3 -60 -4 -47 -6 9 -18
17 -26 17 -10 0 -13 6 -9 19 13 43 -70 54 -92 11 -7 -13 -31 -34 -55 -45 -45
-22 -45 -22 -32 -91 5 -27 3 -33 -17 -40 -13 -4 -32 -7 -41 -5 -10 1 -18 -3
-18 -9 0 -7 -7 -10 -15 -6 -8 3 -15 2 -15 -3 0 -4 -13 -8 -30 -7 -26 1 -31 6
-36 34 -8 41 -17 41 -33 -3 -12 -35 -13 -35 -58 -29 l-45 6 21 -21 c11 -11 27
-18 36 -15 8 4 15 1 15 -5 0 -6 -6 -11 -12 -12 -7 -1 -31 -3 -54 -5 l-41 -3 3
85 c3 87 17 146 42 175 11 14 11 19 -1 30 -65 67 -104 166 -88 227 17 60 53
84 161 107 75 16 119 34 139 59 11 13 9 17 -13 27 -20 10 -29 10 -38 1 -19
-19 -39 -14 -88 18 -25 16 -57 30 -71 30 -15 0 -41 13 -59 29 -32 27 -33 30
-20 60 10 25 15 29 26 20 8 -6 14 -8 14 -3 -1 21 -17 32 -55 37 -53 6 -73 15
-80 35 -3 10 -28 35 -55 57 -52 42 -58 53 -38 73 16 16 38 15 38 -2 0 -14 76
-86 91 -86 4 0 9 12 11 28 2 21 9 28 31 30 15 2 27 10 27 17 0 23 -18 27 -44
10 -23 -15 -25 -15 -45 7 -37 39 -38 68 -5 95 33 26 56 29 74 8z m719 -42 c2
-1 -8 -16 -23 -33 l-26 -32 0 40 c0 46 7 56 29 40 9 -7 18 -13 20 -15z m93
-80 c15 -15 28 -36 28 -47 0 -25 -38 -66 -62 -66 -10 0 -21 -7 -23 -15 -16
-51 -14 -50 -45 -19 -44 44 -47 75 -11 98 16 11 36 32 46 48 20 35 32 35 67 1z
m-1045 -126 c9 -15 83 -67 96 -67 5 0 6 14 2 30 -6 25 -4 30 13 30 40 0 45
-24 17 -79 -14 -28 -28 -51 -31 -51 -2 0 -19 15 -37 33 -31 30 -60 48 -99 61
-15 4 -16 9 -6 31 12 27 32 33 45 12z m1201 -101 c21 -40 23 -49 11 -57 -25
-16 -44 -5 -41 24 4 35 -25 37 -38 2 -9 -23 -12 -24 -30 -13 -18 11 -23 10
-34 -4 -17 -23 -33 -23 -46 1 -16 32 -12 38 28 45 21 3 54 17 73 30 19 13 38
23 43 22 5 -1 20 -24 34 -50z m-2568 3 c0 -5 -4 -9 -10 -9 -5 0 -10 7 -10 16
0 8 5 12 10 9 6 -3 10 -10 10 -16z m1347 -20 c34 -13 44 -27 36 -56 -5 -21 -2
-23 31 -23 37 0 41 -6 30 -47 -7 -26 -21 -29 -43 -9 -9 8 -38 21 -66 29 -48
13 -50 16 -53 52 -6 65 7 76 65 54z m-1247 -60 c0 -11 -40 -48 -52 -49 -5 0
-8 11 -8 24 0 23 4 26 53 35 4 0 7 -4 7 -10z m2508 -66 c-2 -13 -22 -22 -66
-32 -41 -10 -62 -19 -62 -29 0 -14 37 -12 93 4 9 3 17 1 17 -4 0 -20 -32 -34
-82 -36 -50 -1 -52 0 -61 32 -13 42 -6 48 73 65 89 20 92 20 88 0z m-2583 -3
c3 -5 17 -10 30 -10 13 0 27 5 30 10 9 15 22 12 29 -6 9 -24 4 -27 -68 -31
-66 -3 -83 5 -72 32 6 17 42 20 51 5z m2305 -5 c11 -13 10 -14 -4 -9 -9 3 -16
10 -16 15 0 13 6 11 20 -6z m-940 -50 l45 0 6 -45 c4 -25 14 -58 23 -75 9 -16
16 -36 16 -42 0 -16 -26 -17 -36 -2 -4 7 -26 10 -59 6 -48 -5 -54 -3 -59 16
-11 43 -7 56 22 60 l27 4 -32 13 c-20 9 -36 25 -43 44 -14 39 -14 39 18 30 15
-4 47 -8 72 -9z m972 -50 c17 -54 20 -107 3 -60 -4 11 -14 34 -22 50 l-14 30
5 -37 c2 -21 1 -38 -5 -38 -10 0 -12 7 -13 73 -2 67 22 58 46 -18z m871 36
c13 -5 27 -17 30 -25 5 -13 -2 -16 -43 -16 -42 0 -50 3 -50 18 0 33 19 40 63
23z m-836 -73 c-3 -7 -5 -2 -5 12 0 14 2 19 5 13 2 -7 2 -19 0 -25z m-47 -73
c-13 -15 -15 -15 -22 5 -11 30 1 46 20 26 13 -13 13 -17 2 -31z m210 29 c0
-12 -44 -24 -86 -24 -16 0 -24 6 -24 18 0 15 8 18 55 18 34 -1 55 -5 55 -12z
m-170 -44 c0 -5 -4 -10 -10 -10 -5 0 -10 5 -10 10 0 6 5 10 10 10 6 0 10 -4
10 -10z m-897 -25 c21 -20 41 -85 31 -95 -5 -4 -39 -11 -76 -15 -61 -6 -67 -5
-78 14 -6 11 -12 38 -13 58 l-2 38 55 6 c30 3 58 6 62 7 4 1 13 -5 21 -13z
m867 -10 c-7 -8 -17 -15 -22 -15 -6 0 -5 7 2 15 7 8 17 15 22 15 6 0 5 -7 -2
-15z m830 -47 c0 -10 -4 -18 -10 -18 -5 0 -10 15 -10 33 0 24 3 28 10 17 5 -8
10 -23 10 -32z m-640 22 c0 -5 -17 -9 -37 -9 -38 1 -38 1 -8 9 43 11 45 11 45
0z m-2212 -33 c2 -12 -3 -17 -17 -17 -12 0 -21 6 -21 13 0 31 32 34 38 4z
m2030 -134 c-4 -147 -21 -119 -34 55 l-5 77 20 -24 c19 -21 21 -35 19 -108z
m113 95 c22 -6 39 -14 39 -18 0 -14 -61 -50 -85 -50 -28 0 -29 4 -14 49 13 36
10 35 60 19z m721 -15 c39 -35 11 -103 -44 -103 -33 0 -33 2 -11 69 17 55 26
60 55 34z m-1649 -37 c10 -21 17 -45 15 -53 -6 -30 -148 -57 -164 -32 -11 19
-23 81 -17 95 7 18 39 18 46 0 3 -7 1 -18 -5 -24 -25 -25 17 -40 70 -26 24 7
31 34 8 34 -19 0 -30 32 -14 42 23 15 43 3 61 -36z m-1431 -24 c4 -29 -2 -34
-66 -56 -11 -4 -16 -12 -12 -21 3 -8 -3 -19 -14 -25 -26 -14 -30 -13 -30 10 0
13 10 24 26 31 24 9 25 11 11 27 -13 14 -13 19 -1 30 7 6 22 12 33 12 11 0 23
5 26 10 11 18 23 10 27 -18z m1478 -113 c16 -58 9 -69 -43 -69 -24 0 -64 -3
-89 -6 l-45 -6 -7 37 c-8 39 5 65 31 65 12 0 13 -9 8 -41 l-7 -42 47 8 c26 3
54 9 61 12 18 7 18 33 0 33 -18 0 -39 27 -31 40 3 5 19 10 35 10 26 0 31 -5
40 -41z m601 -52 c-6 -6 -11 -17 -11 -24 0 -18 32 -53 49 -53 10 0 12 -9 7
-37 -3 -21 -6 -48 -6 -60 0 -17 -6 -23 -21 -23 -17 0 -20 4 -15 28 7 31 -18
79 -28 52 -3 -8 -6 -26 -8 -40 -2 -19 -10 -26 -31 -28 -16 -2 -36 0 -45 4 -10
4 -21 6 -26 5 -5 -1 -16 1 -25 5 -9 4 -26 6 -38 5 -27 -3 -29 6 -6 31 15 17
15 18 -10 18 -20 0 -27 -5 -27 -20 0 -15 -7 -20 -25 -20 -26 0 -35 23 -14 36
6 3 9 14 6 24 -3 13 1 18 12 18 18 -2 90 20 106 32 6 4 22 10 37 14 15 3 35
21 48 41 12 19 33 44 48 56 l27 21 3 -37 c2 -21 -1 -42 -7 -48z m114 -26 c-18
-18 -72 -22 -85 -6 -11 13 -5 15 41 15 33 0 49 -4 44 -9z m-715 -31 c0 -13 -5
-18 -15 -14 -16 7 -19 17 -8 27 12 13 23 7 23 -13z m286 -56 c3 -27 -16 -41
-38 -28 -13 9 -17 9 -53 13 -19 2 -18 3 5 22 23 20 25 20 31 2 7 -15 8 -16 8
-1 1 9 9 18 19 20 22 5 25 3 28 -28z m-118 -30 c23 -5 28 -10 25 -25 -6 -21
-18 -25 -28 -9 -12 19 -27 10 -22 -12 4 -14 -1 -32 -13 -45 -30 -38 -37 -28
-27 37 10 62 12 64 65 54z m-87 -57 c-6 -6 -11 -24 -11 -39 0 -28 -1 -29 -37
-22 -21 4 -39 8 -41 9 -1 1 5 19 13 39 11 26 21 36 31 32 8 -3 22 4 32 15 l17
20 3 -22 c2 -12 -1 -26 -7 -32z m184 34 c6 -11 -22 -41 -39 -41 -9 0 -12 9 -8
25 4 25 35 35 47 16z m1090 -91 c-3 -5 -11 -10 -16 -10 -6 0 -7 5 -4 10 3 6
11 10 16 10 6 0 7 -4 4 -10z m-2688 -65 c36 -18 51 -45 25 -45 -9 0 -30 7 -46
15 -15 8 -41 15 -57 15 -19 0 -29 5 -29 15 0 20 67 20 107 0z m1568 -55 c-15
-24 -160 -76 -170 -60 -3 5 9 12 27 15 18 4 53 18 78 31 47 24 75 31 65 14z
m518 -132 c9 -11 17 -29 17 -39 0 -10 16 -48 36 -84 l36 -65 -125 0 -125 0
-26 31 c-14 16 -35 31 -46 32 -15 1 -20 8 -20 28 0 39 35 77 78 85 20 4 47 15
60 25 29 22 90 15 115 -13z m-1743 -53 c7 -8 18 -42 25 -75 l13 -60 -52 0
c-76 1 -177 17 -192 32 -7 7 -15 23 -17 34 -1 12 -11 29 -20 38 -9 10 -17 23
-17 29 0 8 4 7 9 -2 5 -8 16 -11 25 -8 8 3 18 3 20 -2 3 -4 38 -13 78 -20 40
-8 79 -18 85 -23 16 -13 27 13 21 47 -6 28 4 32 22 10z"/>
<path d="M1742 1843 c5 -25 28 -28 28 -4 0 12 -6 21 -16 21 -9 0 -14 -7 -12
-17z"/>
<path d="M1770 1766 c0 -17 14 -29 23 -20 8 8 -3 34 -14 34 -5 0 -9 -6 -9 -14z"/>
<path d="M1740 1440 c0 -5 5 -10 11 -10 5 0 7 5 4 10 -3 6 -8 10 -11 10 -2 0
-4 -4 -4 -10z"/>
<path d="M2005 1099 c-16 -5 -54 -14 -84 -21 -62 -15 -73 -30 -37 -53 24 -16
27 -15 69 9 24 14 58 26 75 26 27 0 32 4 32 25 0 27 -7 28 -55 14z"/>
<path d="M2405 1641 c-7 -12 12 -24 25 -16 11 7 4 25 -10 25 -5 0 -11 -4 -15
-9z"/>
<path d="M1355 1390 c3 -5 10 -10 16 -10 5 0 9 5 9 10 0 6 -7 10 -16 10 -8 0
-12 -4 -9 -10z"/>
<path d="M1437 1013 c-16 -16 -4 -23 38 -23 33 0 45 4 45 15 0 11 -11 15 -38
15 -21 0 -42 -3 -45 -7z"/>
<path d="M2110 575 c0 -8 2 -15 4 -15 2 0 6 7 10 15 3 8 1 15 -4 15 -6 0 -10
-7 -10 -15z"/>
<path d="M1671 474 c0 -11 3 -14 6 -6 3 7 2 16 -1 19 -3 4 -6 -2 -5 -13z"/>
<path d="M2020 4449 c-37 -69 75 -122 133 -63 33 33 23 59 -31 74 -58 16 -90
13 -102 -11z"/>
<path d="M0 4173 c0 -234 1 -245 18 -230 9 8 29 20 45 26 40 16 68 104 83 262
11 131 -18 189 -98 189 l-48 0 0 -247z"/>
<path d="M1872 4408 c-24 -24 -6 -100 27 -113 31 -12 54 60 35 109 -7 19 -45
21 -62 4z"/>
<path d="M18 3893 c-15 -4 -18 -16 -18 -74 0 -38 2 -69 5 -69 5 0 45 23 64 37
2 1 -2 9 -8 17 -9 11 -9 22 4 51 8 21 15 39 15 41 0 5 -40 3 -62 -3z"/>
<path d="M3304 3319 c-42 -10 -114 -62 -102 -74 3 -4 20 3 36 15 17 12 35 21
42 18 13 -4 -47 -51 -66 -51 -7 0 -11 -4 -9 -8 3 -3 -2 -12 -10 -19 -20 -17
-19 -27 5 -35 38 -12 90 6 106 37 14 28 17 29 33 14 10 -9 21 -16 24 -16 4 0
7 29 7 65 0 71 2 69 -66 54z"/>
<path d="M3335 3150 c-8 -13 5 -13 25 0 13 8 13 10 -2 10 -9 0 -20 -4 -23 -10z"/>
<path d="M224 2352 c-56 -67 -71 -96 -83 -160 -14 -73 -9 -90 12 -41 8 19 27
63 42 99 15 36 38 79 51 97 43 56 25 60 -22 5z"/>
<path d="M3312 1878 c-36 -77 -54 -151 -60 -250 -4 -53 -4 -94 1 -91 4 2 7 -2
7 -11 0 -8 -4 -16 -10 -18 -5 -1 -7 -14 -3 -26 3 -14 9 -19 13 -13 3 7 30 14
58 18 l52 6 0 201 c0 194 -4 226 -31 226 -4 0 -16 -19 -27 -42z"/>
<path d="M3180 1797 c0 -23 35 -97 46 -97 17 0 10 41 -12 78 -12 18 -34 31
-34 19z"/>
<path d="M3347 1068 c3 -27 2 -30 -7 -15 -6 9 -20 17 -31 17 -15 0 -20 -6 -17
-22 2 -19 9 -23 41 -23 34 -1 38 2 33 20 -3 11 -6 28 -6 38 0 9 -4 17 -8 17
-5 0 -7 -15 -5 -32z"/>
<path d="M3310 1000 c0 -6 9 -38 21 -72 16 -49 18 -66 9 -92 -8 -25 -8 -33 4
-41 8 -6 16 -27 19 -46 2 -18 4 31 3 111 l-1 145 -27 3 c-16 2 -28 -2 -28 -8z"/>
<path d="M0 430 c0 -11 7 -20 15 -20 8 0 15 -4 15 -10 0 -5 7 -10 15 -10 23 0
18 14 -15 38 -30 22 -30 22 -30 2z"/>
<path d="M0 275 c0 -8 5 -14 11 -12 7 1 16 -13 21 -30 10 -39 33 -43 42 -8 4
14 13 25 21 25 8 0 15 7 15 15 0 18 -16 20 -24 3 -3 -9 -8 -8 -16 5 -14 22
-70 24 -70 2z"/>
<path d="M120 55 c-10 -12 -10 -15 2 -15 8 0 15 7 15 15 0 8 -1 15 -2 15 -2 0
-8 -7 -15 -15z"/>
<path d="M168 33 c7 -3 16 -2 19 1 4 3 -2 6 -13 5 -11 0 -14 -3 -6 -6z"/>
<path d="M2803 3 c15 -2 39 -2 55 0 15 2 2 4 -28 4 -30 0 -43 -2 -27 -4z"/>
</g>
</svg>
